<?xml version="1.0" encoding="utf-8"?>
<!-- Generator: Adobe Illustrator 16.0.0, SVG Export Plug-In . SVG Version: 6.00 Build 0)  -->
<!DOCTYPE svg PUBLIC "-//W3C//DTD SVG 1.1//EN" "http://www.w3.org/Graphics/SVG/1.1/DTD/svg11.dtd">
<svg version="1.1" id="Layer_1" xmlns="http://www.w3.org/2000/svg" xmlns:xlink="http://www.w3.org/1999/xlink" x="0px" y="0px"
	  viewBox="0 0 3000 3000" enable-background="new 0 0 3000 3000" xml:space="preserve">
<g>
	<path fill="#1D191C" d="M2574.906,1522.856l-8.305,50.473c-1.615,9.854-10.01,17.026-19.975,17.026
		c-9.99,0-18.168-8.051-18.168-18.069v-50.064c0-11.541,9.4-20.925,20.961-20.925h7.18c5.477,0,10.627,2.366,14.162,6.537
		C2574.279,1511.959,2575.803,1517.462,2574.906,1522.856 M2482.42,1433.019c0,11.522-9.375,20.906-20.908,20.906h-16.102
		c-11.658,0-21.559-8.341-23.5-19.827l-7.215-43.71c-0.889-5.24,0.607-10.599,4.088-14.724c3.654-4.325,9.066-6.827,14.832-6.827
		h28.188c11.342,0,20.607,9.438,20.607,20.971v43.211H2482.42z M2482.42,1572.341c0,9.973-8.15,18.015-18.16,18.015
		c-9.945,0-18.369-7.117-19.98-17.026l-8.361-50.473c-0.852-5.403,0.617-10.897,4.152-15.022c3.564-4.171,8.678-6.537,14.145-6.537
		h7.307c11.523,0,20.908,9.374,20.908,20.925v50.119H2482.42z M2392.863,1583.492c-3.672,4.37-9.176,6.872-15.014,6.872h-2.992
		c-11.488,0-21.533-7.606-24.48-18.513l-1.758-6.519c-3.129-11.397-7-25.84-11.27-42.912c-1.279-4.959-0.154-10.218,3.037-14.279
		c3.373-4.279,8.623-6.836,14.152-6.836h11.098c11.713,0,21.551,8.351,23.527,19.838l7.814,47.671
		C2397.83,1574.019,2396.354,1579.421,2392.863,1583.492 M2316.18,1435.321c-3.201-12.621-6.238-23.719-8.885-33.582l-2.893-10.798
		c-1.369-5.204-0.264-10.708,3.047-15.023c3.408-4.515,8.641-7.071,14.369-7.071h22.965c11.523,0,21.188,8.404,23.102,19.873
		l7.189,43.654c0.871,5.403-0.607,10.844-4.17,15.022c-3.527,4.181-8.686,6.528-14.107,6.528h-16.156
		C2329.035,1453.925,2318.953,1446.264,2316.18,1435.321 M2675.941,1523.047c-4.244,16.945-8.168,31.27-11.262,42.666l-1.395,5.204
		c-3.074,11.486-12.92,19.447-23.918,19.447h-7.77c-5.195,0-10.117-2.313-13.527-6.283c-3.572-4.161-5.096-9.764-4.205-15.267
		l7.924-47.671c0.598-3.591,2.074-6.872,4.078-9.675c-70.199-17.534-122.277-80.754-122.277-156.376
		c0-11.487,1.232-22.684,3.564-33.527h-200.195c-11.65,0-21.777-7.852-24.678-19.193l-10.645-41.488
		c-3.971-15.566-17.996-26.464-34.244-26.464l-59.111,0.199c-11.242,0.045-20.455,9.175-20.455,20.472
		c0,11.243,9.213,20.373,20.4,20.373h32.303c11.715,0,21.77,7.905,24.553,19.202l77.508,316.415
		c3.826,15.712,17.797,26.619,33.898,26.619h320.459c16.146,0,30.137-10.898,34.072-26.619l26.863-107.418
		c-16.066,6.818-33.492,10.898-51.732,12.222C2676.521,1518.196,2676.521,1520.645,2675.941,1523.047"/>
	<path fill="#FF8710" d="M2736.93,1442.429l-68.668-36.084l-68.559,36.084l13.072-76.447l-55.449-54.099l76.666-11.143l34.26-69.521
		l34.371,69.521l76.719,11.143l-55.531,54.099L2736.93,1442.429z M2668.334,1210.893c-75.088,0-135.994,60.881-135.994,135.949
		c0,75.07,60.906,136.042,135.994,136.042c75.043,0,135.969-60.972,135.969-136.042
		C2804.303,1271.773,2743.387,1210.893,2668.334,1210.893"/>
	<path fill="#1D191C" d="M2365.773,1668.916c-32.35,0-58.66,26.954-58.66,60.1c0,33.138,26.301,60.092,58.66,60.092
		c32.355,0,58.668-26.954,58.668-60.092C2424.441,1695.87,2398.129,1668.916,2365.773,1668.916"/>
	<path fill="#1D191C" d="M2647.617,1668.916c-32.33,0-58.658,26.954-58.658,60.1c0,33.138,26.318,60.092,58.658,60.092
		c32.322,0,58.65-26.954,58.65-60.092C2706.268,1695.87,2679.949,1668.916,2647.617,1668.916"/>
	<path fill="#070606" d="M858.719,1671.373c-26.021,18.404-67.662,27.643-124.834,27.643h-80.826
		c-11.034,0-22.811-0.235-35.359-0.843c-12.512-0.48-24.815-1.959-36.927-4.452c-12.085-2.503-23.645-6.138-34.662-10.897
		c-11.005-4.814-20.716-11.45-29.111-19.991c-8.477-8.45-15.187-18.903-20.227-31.379c-5.032-12.421-7.552-27.688-7.552-45.749
		v-279.76h73.881v275.49c0,29.121,27.29,43.645,81.824,43.645h99.357c53.637,0,80.51-14.533,80.51-43.645v-275.49h72.92v279.76
		C897.705,1624.399,884.694,1652.923,858.719,1671.373"/>
	<path fill="#070606" d="M1450.253,1701.672V1445.82l-157.728,235.163c-5.503,8.113-11.931,14.251-19.266,18.322
		c-7.343,4.071-15.159,6.138-23.327,6.138c-18.097,0-32.629-8.195-43.609-24.452l-160.004-237.275v257.956h-73.927v-352.617
		c0-13.5,3.69-23.999,11.061-31.614c7.316-7.662,16.836-11.496,28.459-11.496c17.181,0,30.653,6.735,40.472,20.236l197.955,281.963
		l193.893-281.42c9.185-13.844,22.177-20.779,39.049-20.779c12.23,0,22.113,4.333,29.593,12.819
		c7.533,8.45,11.287,19.639,11.287,33.474v349.435H1450.253z"/>
	<rect x="1596.42" y="1305.898" fill="#070606" width="73.891" height="393.117"/>
	<path fill="#070606" d="M1991.84,1403.797l-70.227,117.047h141.859L1991.84,1403.797z M2168.598,1701.173l-61.045-106.384H1879.4
		l-59.658,106.384h-87.199l220.285-368.665c10.725-17.724,24.516-26.572,41.307-26.572c17.143,0,31.088,8.648,41.813,26.074
		l215.68,369.163H2168.598z"/>
	<path fill="#070606" d="M418.15,1523.682c0,119.948-44.697,170.565-121.063,187.256c-76.375,16.7-100.646,16.401-100.646,16.401
		l-0.744-81.442c30.373-1.624,76.176-6.583,105.133-18.16c26.456-10.554,47.263-36.148,45.141-104.055l1.442-144.092l0.145-73.654
		l73.682,0.244L418.15,1523.682z"/>
</g>
</svg>
